<?xml version="1.0"?>
<svg width="54.99999999999999" height="52" xmlns="http://www.w3.org/2000/svg" xmlns:svg="http://www.w3.org/2000/svg" xmlns:xlink="http://www.w3.org/1999/xlink">
 <!-- Created with SVG-edit - https://github.com/SVG-Edit/svgedit-->
 <defs>
  <symbol enable-background="new 0 0 256 256" height="96" id="svg_1" version="1.1" viewBox="0 0 256 256" width="98" xml:space="preserve" xmlns="http://www.w3.org/2000/svg" xmlns:xlink="http://www.w3.org/1999/xlink">
   <g>
    <g>
     <g>
      <path d="m125.3,18.6c-1.2,0.3 -27.1,13.6 -57.6,29.4c-58.5,30.3 -57.7,29.9 -57.7,32.9c0,0.6 1.2,3.6 2.8,6.7c3,6 4.5,7.7 7.4,8.6c1.2,0.3 36.4,0.5 108.2,0.5c115.9,0 108.2,0.2 111,-2.5c0.6,-0.6 2.4,-3.6 3.9,-6.6c3.1,-6.2 3.3,-7.9 1.2,-9.9c-1.5,-1.5 -112.1,-58.7 -114.4,-59.2c-2.2,-0.7 -2.3,-0.7 -4.8,0.1zm6.6,21.8c1.2,2.4 1.5,2.7 4.5,3.5c3.4,1 6.5,3.9 7,6.6c0.5,2.6 -0.1,3.2 -3.6,3.4c-4.1,0.2 -4.7,0 -6.4,-2.5c-1.3,-1.9 -1.7,-2.1 -3.3,-2.1c-2.5,0 -4.1,0.8 -4.7,2.3c-1.1,2.6 0.6,4 6.8,5.9c10,3 12.4,5.2 12.4,11.3c0,5.1 -3.1,9 -8.2,10.6c-2.9,0.9 -3.1,1.1 -4.3,3.5c-0.5,1.1 -1.2,1.7 -1.9,1.8c-1.3,0.2 -2.9,-1.1 -2.9,-2.3c0,-1 -1.5,-2.1 -3.7,-2.5c-3.7,-0.8 -6.8,-3.2 -8.2,-6.4c-1,-2.3 -0.9,-3 0.2,-4.1c0.7,-0.7 1.5,-0.9 3.6,-0.9c3.2,0 4.1,0.4 5.4,2.8c1.2,2.2 2.5,2.9 5.4,2.9c3.9,0 6.2,-3.8 3.8,-6.3c-0.7,-0.7 -3.4,-1.8 -7.2,-3c-6.7,-2.2 -9.5,-4 -10.7,-6.9c-2.2,-5.1 1,-11.5 6.6,-13.4c3.8,-1.3 4.6,-1.8 5,-3.2c0.5,-3.4 3,-3.8 4.4,-1z" fill="#000000"/>
      <path d="m41.2,107c-1.5,0.8 -2.1,1.8 -2.1,3.7c0,2.1 1.4,3.6 3.7,4c2.4,0.5 3.3,1 4,2.7c0.5,1.3 0.3,7.5 -1.9,43.7c-1.4,23.2 -2.5,42.2 -2.5,42.2c0,0 -1.9,0.1 -4.2,0.3c-5.8,0.3 -8.1,1.8 -9,5.9c-0.7,3.4 1.8,7.6 5.2,8.5c2.2,0.6 185.1,0.7 187.4,0c1.9,-0.5 4.2,-2.5 4.8,-4.2c0.7,-1.9 0.5,-5 -0.4,-6.6c-1.5,-2.5 -3.6,-3.4 -8.2,-3.7l-4.1,-0.2l-0.2,-1.5c-0.1,-0.8 -0.6,-7.8 -1,-15.5s-1.5,-26 -2.3,-40.8c-1.3,-22.7 -1.5,-26.9 -0.9,-28.2c0.7,-1.6 1.5,-2.2 4,-2.7c2.2,-0.4 3.7,-2 3.7,-3.8c0,-4.4 0,-4.4 -21.3,-4.4l-18.1,0l-1.4,1.4c-1.2,1.3 -1.4,1.7 -1.2,3.2c0.4,2.1 1.7,3.3 4.1,3.7c2.4,0.4 4.2,2.4 4.2,4.8c0,1 -1.1,20 -2.3,42.2c-1.3,22.3 -2.3,40.7 -2.3,41.1c0,0.5 -3,0.6 -16.5,0.6l-16.5,0l-2.4,-42.4c-2.2,-38.3 -2.4,-42.5 -1.8,-43.8c0.8,-1.5 1.6,-2.1 4.1,-2.5c3.6,-0.7 4.9,-4.8 2.2,-7l-1.5,-1.2l-18.5,0l-18.3,0l-1.4,1.4c-2.6,2.6 -1.2,6.2 2.7,6.9c2.2,0.4 3.8,1.8 4.2,3.7c0.1,0.8 -0.8,19.7 -2.1,41.9c-1.3,22.2 -2.3,41 -2.3,41.8l0,1.4l-16.7,0l-16.6,0l0,-1.6c0,-0.8 -1.1,-19.7 -2.3,-42.1c-1.3,-22.3 -2.2,-41.2 -2.1,-41.9c0.3,-1.7 2.1,-3 4.4,-3.4c3.7,-0.6 4.9,-4.3 2.4,-6.8l-1.4,-1.4l-18.2,0c-12.3,0.1 -18.5,0.2 -19.1,0.6z" fill="#000000"/>
      <path d="m20.1,223.6c-0.7,0.2 -1.9,0.9 -2.5,1.5c-3.7,3.4 -3.3,8.7 0.9,11.8l1.3,1l107.2,0.1c69.5,0 107.7,0 108.8,-0.4c0.9,-0.2 2.4,-1.2 3.3,-2.1c1.5,-1.6 1.6,-1.9 1.6,-4.9s-0.1,-3.3 -1.6,-4.9c-0.9,-0.9 -2.3,-1.9 -3.3,-2.1c-2,-0.6 -213.7,-0.6 -215.7,0z" fill="#000000"/>
     </g>
    </g>
   </g>
  </symbol>
 </defs>
 <g class="layer">
  <title>Layer 1</title>
  <use id="svg_2" transform="matrix(0.625 0 0 0.625 -2.97248 -4.21895)" xlink:href="#svg_1"/>
 </g>
</svg>