<svg version="1.0" xmlns="http://www.w3.org/2000/svg"
 width="98" height="96" viewBox="0 0 783.000000 777.000000"
 preserveAspectRatio="xMidYMid meet">

<g transform="translate(0.000000,777.000000) scale(0.100000,-0.100000)"
fill="#000000" stroke="none">
<path d="M492 7759 c-231 -39 -410 -201 -467 -424 -13 -52 -15 -448 -15 -3460
0 -3749 -5 -3446 62 -3585 45 -94 150 -195 252 -246 l80 -39 3496 0 3496 0 80
39 c145 72 257 210 299 366 22 83 22 6847 0 6930 -52 195 -199 344 -405 408
-51 16 -285 17 -3440 18 -1912 1 -3408 -2 -3438 -7z m1413 -1085 c286 -68 505
-350 505 -650 0 -138 -65 -318 -152 -419 -95 -111 -233 -200 -359 -230 -82
-19 -236 -19 -318 0 -135 32 -285 129 -368 239 -163 215 -187 472 -68 714 138
279 448 420 760 346z m3715 -1763 c533 -94 842 -413 960 -989 53 -264 53 -256
57 -1570 l4 -1222 -575 0 -575 0 -4 1073 c-3 785 -7 1092 -16 1145 -69 413
-238 575 -596 574 -312 -2 -511 -134 -606 -402 -71 -201 -79 -339 -79 -1482
l0 -908 -575 0 -575 0 0 1860 0 1860 555 0 555 0 0 -255 c0 -235 6 -294 25
-235 12 36 121 174 191 241 194 184 415 285 729 333 77 11 414 -3 525 -23z
m-3302 -1918 l-3 -1858 -577 -3 -578 -2 0 1860 0 1860 580 0 580 0 -2 -1857z"/>
</g>
</svg>
